<?xml version="1.0" encoding="utf-8"?><!-- Uploaded to: SVG Repo, www.svgrepo.com, Generator: SVG Repo Mixer Tools -->
<svg width="800px" height="800px" viewBox="0 0 24 24" fill="none" xmlns="http://www.w3.org/2000/svg">
<path d="M12 8.4C13.4912 8.4 14.7 7.19117 14.7 5.7C14.7 4.20883 13.4912 3 12 3C10.5088 3 9.3 4.20883 9.3 5.7C9.3 7.19117 10.5088 8.4 12 8.4ZM12 8.4V20.9999M12 20.9999C9.61305 20.9999 7.32387 20.0518 5.63604 18.364C3.94821 16.6761 3 14.3869 3 12H5M12 20.9999C14.3869 20.9999 16.6761 20.0518 18.364 18.364C20.0518 16.6761 21 14.3869 21 12H19" stroke="#000000" stroke-width="2" stroke-linecap="round" stroke-linejoin="round"/>
</svg>