<svg viewBox="0 0 18 12" fill="none" xmlns="http://www.w3.org/2000/svg">
<path d="M1 2H0.5H1ZM17 1H17.5C17.5 0.810614 17.393 0.637482 17.2236 0.552786C17.0542 0.46809 16.8515 0.486368 16.7 0.6L17 1ZM13 4L12.7 3.6C12.5741 3.69443 12.5 3.84262 12.5 4H13ZM13 8H12.5C12.5 8.15738 12.5741 8.30557 12.7 8.4L13 8ZM17 11L16.7 11.4C16.8515 11.5136 17.0542 11.5319 17.2236 11.4472C17.393 11.3625 17.5 11.1894 17.5 11H17ZM13.5 10V2H12.5V10H13.5ZM13.5 2C13.5 1.60217 13.342 1.22064 13.0607 0.93934L12.3536 1.64645C12.4473 1.74022 12.5 1.86739 12.5 2H13.5ZM13.0607 0.93934C12.7794 0.658036 12.3978 0.5 12 0.5V1.5C12.1326 1.5 12.2598 1.55268 12.3536 1.64645L13.0607 0.93934ZM12 0.5H2V1.5H12V0.5ZM2 0.5C1.60217 0.5 1.22064 0.658036 0.93934 0.93934L1.64645 1.64645C1.74022 1.55268 1.86739 1.5 2 1.5V0.5ZM0.93934 0.93934C0.658036 1.22064 0.5 1.60217 0.5 2H1.5C1.5 1.86739 1.55268 1.74022 1.64645 1.64645L0.93934 0.93934ZM0.5 2V10H1.5V2H0.5ZM0.5 10C0.5 10.3978 0.658035 10.7794 0.93934 11.0607L1.64645 10.3536C1.55268 10.2598 1.5 10.1326 1.5 10H0.5ZM0.93934 11.0607C1.22065 11.342 1.60218 11.5 2 11.5V10.5C1.86739 10.5 1.74021 10.4473 1.64645 10.3536L0.93934 11.0607ZM2 11.5H12V10.5H2V11.5ZM12 11.5C12.3978 11.5 12.7794 11.342 13.0607 11.0607L12.3536 10.3536C12.2598 10.4473 12.1326 10.5 12 10.5V11.5ZM13.0607 11.0607C13.342 10.7794 13.5 10.3978 13.5 10H12.5C12.5 10.1326 12.4473 10.2598 12.3536 10.3536L13.0607 11.0607ZM16.7 0.6L12.7 3.6L13.3 4.4L17.3 1.4L16.7 0.6ZM12.5 4V8H13.5V4H12.5ZM12.7 8.4L16.7 11.4L17.3 10.6L13.3 7.6L12.7 8.4ZM17.5 11V1H16.5V11H17.5Z" fill="#64748B"/>
</svg>

