<svg width="24" height="24" viewBox="0 0 24 24" fill="none" xmlns="http://www.w3.org/2000/svg">
<path fill-rule="evenodd" clip-rule="evenodd" d="M13.189 6.34405C12.0275 6.08594 10.6332 6 9 6C7.3668 6 5.97252 6.08594 4.81104 6.34405C3.63612 6.6052 2.62728 7.05823 1.84272 7.84273C1.05828 8.62723 0.605159 9.63612 0.344039 10.811C0.0859191 11.9725 0 13.3668 0 15C0 16.6332 0.0859191 18.0275 0.344039 19.189C0.605159 20.3639 1.05828 21.3727 1.84272 22.1573C2.62728 22.9417 3.63612 23.3948 4.81104 23.656C5.97252 23.9141 7.3668 24 9 24C10.6332 24 12.0275 23.9141 13.189 23.656C14.3639 23.3948 15.3728 22.9417 16.1573 22.1573C16.9418 21.3727 17.3948 20.3639 17.6559 19.189C17.9141 18.0275 18 16.6332 18 15C18 13.3668 17.9141 11.9725 17.6559 10.811C17.3948 9.63612 16.9418 8.62723 16.1573 7.84273C15.3728 7.05823 14.3639 6.6052 13.189 6.34405Z" fill="#64748B"/>
<path d="M19.0947 17.6764C19.172 16.8428 19.2 15.9479 19.2 15C19.2 13.3392 19.1141 11.8411 18.8274 10.5508C18.5346 9.23336 18.0014 7.98983 17.0058 6.99421C16.0102 5.9986 14.7666 5.46541 13.4492 5.17264C12.1589 4.88587 10.6608 4.8 9 4.8C8.05212 4.8 7.15716 4.82797 6.32364 4.90531C6.63552 3.43627 7.23012 2.24593 8.34336 1.40818C9.88092 0.251112 12.1368 0 15 0C16.6332 0 18.0275 0.085944 19.1889 0.344052C20.3639 0.605196 21.3728 1.05823 22.1573 1.84273C22.9418 2.62723 23.3948 3.63607 23.6559 4.81109C23.9141 5.97247 24 7.36679 24 9C24 11.8632 23.7489 14.1191 22.5918 15.6566C21.7541 16.7699 20.5637 17.3645 19.0947 17.6764Z" fill="#64748B"/>
</svg>

