<svg viewBox="0 0 10 20" fill="none" xmlns="http://www.w3.org/2000/svg">
<path d="M8.4 12.6V15C8.4 16.8778 6.87777 18.4 5 18.4C3.12223 18.4 1.6 16.8778 1.6 15L1.6 12.6H0L0 15C0 17.7614 2.23858 20 5 20C7.76142 20 10 17.7614 10 15V12.6H8.4Z" fill="#64748B"/>
<path d="M8.4 7.2H10L10 5C10 2.23858 7.76142 0 5 0C2.23858 0 0 2.23858 0 5L0 7.2H1.6L1.6 5C1.6 3.12223 3.12223 1.6 5 1.6C6.87777 1.6 8.4 3.12223 8.4 5L8.4 7.2Z" fill="#64748B"/>
<path d="M4.2 5.8C4.2 5.35817 4.55817 5 5 5C5.44183 5 5.8 5.35817 5.8 5.8L5.8 14.2C5.8 14.6418 5.44183 15 5 15C4.55817 15 4.2 14.6418 4.2 14.2L4.2 5.8Z" fill="#64748B"/>
</svg>

