<!DOCTYPE svg PUBLIC "-//W3C//DTD SVG 1.1//EN" "http://www.w3.org/Graphics/SVG/1.1/DTD/svg11.dtd">

<!-- Uploaded to: SVG Repo, www.svgrepo.com, Transformed by: SVG Repo Mixer Tools -->
<svg fill="#64748b" width="800px" height="800px" viewBox="0 0 24 24" xmlns="http://www.w3.org/2000/svg">

<g id="SVGRepo_bgCarrier" stroke-width="0"/>

<g id="SVGRepo_tracerCarrier" stroke-linecap="round" stroke-linejoin="round"/>

<g id="SVGRepo_iconCarrier">

<path d="M16.5,5A4.86,4.86,0,0,0,14,5.69,6,6,0,0,0,2.5,8v4a6,6,0,0,0,5,5.91V21a1,1,0,0,0,2,0V17.91a6.08,6.08,0,0,0,2.78-1.26A5,5,0,0,0,15.5,18.9V21a1,1,0,0,0,2,0V18.9a5,5,0,0,0,4-4.9V10A5,5,0,0,0,16.5,5Zm-5,5v4a5.23,5.23,0,0,0,.06.57,4,4,0,0,1-2.06,1.3V13a1,1,0,0,0-2,0v2.86A4,4,0,0,1,4.5,12V8a4,4,0,0,1,6.83-2.84,3.94,3.94,0,0,1,1.06,2A5,5,0,0,0,11.5,10Zm8,4a3,3,0,0,1-2,2.82V13a1,1,0,0,0-2,0v3.82a3,3,0,0,1-2-2.82V10a3,3,0,0,1,6,0Z"/>

</g>

</svg>