<!DOCTYPE svg PUBLIC "-//W3C//DTD SVG 1.1//EN" "http://www.w3.org/Graphics/SVG/1.1/DTD/svg11.dtd">
<!-- Uploaded to: SVG Repo, www.svgrepo.com, Transformed by: SVG Repo Mixer Tools -->
<svg width="800px" height="800px" viewBox="0 0 32 32" enable-background="new 0 0 32 32" version="1.1" xml:space="preserve" xmlns="http://www.w3.org/2000/svg" xmlns:xlink="http://www.w3.org/1999/xlink" fill="#000000">
<g id="SVGRepo_bgCarrier" stroke-width="0"/>
<g id="SVGRepo_tracerCarrier" stroke-linecap="round" stroke-linejoin="round"/>
<g id="SVGRepo_iconCarrier"> <g id="Layer_2"/> <g id="Layer_3"/> <g id="Layer_4"/> <g id="Layer_5"/> <g id="Layer_6"/> <g id="Layer_7"/> <g id="Layer_8"/> <g id="Layer_9"/> <g id="Layer_10"/> <g id="Layer_11"/> <g id="Layer_12"/> <g id="Layer_13"/> <g id="Layer_14"> <g> <path d="M27,14c0,0.5-0.5,1-1,1H8c-3.9,0-7-3.1-7-7s3.1-7,7-7c0.5,0,1,0.5,1,1S8.5,3,8,3C5.2,3,3,5.2,3,8 s2.2,5,5,5h18C26.5,13,27,13.5,27,14z" fill="#64748b"/> </g> <g> <path d="M31,17c0,0.5-0.5,1-1,1H11c-0.5,0-1-0.5-1-1s0.5-1,1-1h19C30.5,16,31,16.5,31,17z" fill="#475569"/> </g> <g> <path d="M27,20c0,0.5-0.5,1-1,1H11c-2.2,0-4,1.8-4,4c0,2.2,1.8,4,4,4c0.5,0,1,0.5,1,1s-0.5,1-1,1c-3.3,0-6-2.7-6-6 s2.7-6,6-6h15C26.5,19,27,19.5,27,20z" fill="#64748b"/> </g> </g> <g id="Layer_15"/> <g id="Layer_16"/> <g id="Layer_17"/> <g id="Layer_18"/> <g id="Layer_19"/> <g id="Layer_20"/> <g id="Layer_21"/> <g id="Layer_22"/> <g id="Layer_23"/> <g id="Layer_24"/> <g id="Layer_25"/> <g id="Wearher"/> </g>
</svg>