<svg fill="#000000" height="191px" width="191px" version="1.1" id="Layer_1" xmlns="http://www.w3.org/2000/svg" xmlns:xlink="http://www.w3.org/1999/xlink" viewBox="-8.32 -8.32 80.64 80.64" enable-background="new 0 0 64 64" xml:space="preserve" stroke="#000000" stroke-width="1.984"><g id="SVGRepo_bgCarrier" stroke-width="0"></g><g id="SVGRepo_tracerCarrier" stroke-linecap="round" stroke-linejoin="round"></g><g id="SVGRepo_iconCarrier"> <path id="World" d="M32,0C14.3269014,0,0.0000016,14.3268995,0.0000016,32S14.3269014,64,32,64c17.6730003,0,32-14.3269005,32-32 S49.6730003,0,32,0z M59.9011002,20.9979992h-8.2947998C50.0063972,12.6344004,46.4979973,7.3811998,43.7486,4.3986001 C51.1040001,7.5414,56.9510994,13.5437002,59.9011002,20.9979992z M50.5262985,30.5702991 c0,3.8985004-0.3558998,7.3584003-0.9350014,10.4297009H33V22.9979992h16.9626999 C50.3169975,25.2905998,50.5262985,27.8041992,50.5262985,30.5702991z M38.9873009,61.1697998 C37.0564995,61.6324005,35.0544014,61.9067993,33,61.9746017V43h16.1736984 C46.2507973,55.5363007,39.5573997,60.7462997,38.9873009,61.1697998z M26.0546017,61.2001991 c-0.028801-0.0205002-2.9267006-2.0732994-5.7861004-6.8456993C18.7133007,51.7587013,16.9868011,48.0116997,15.8250017,43 h15.1750002v18.9746017c-1.6039009-0.0529022-3.1763-0.2298012-4.7075996-0.526001 C26.2281017,61.3558006,26.1527023,61.2685013,26.0546017,61.2001991z M14.4731016,30.5702991 c0-2.7647991,0.1869001-5.2784996,0.5030003-7.5723h16.0238991V41H15.4065018 C14.8340015,37.9496994,14.4731016,34.4883003,14.4731016,30.5702991z M24.5285015,2.9421 c2.078701-0.5347002,4.2458-0.8433001,6.4715004-0.9167001v18.972599H15.2952013 C17.4938011,8.8860998,23.4321022,3.7895,24.5285015,2.9421z M33,20.9979992V2.0253999 c2.0587006,0.0678,4.0649033,0.3432,5.9995003,0.8075001c0.0016975,0.0011001,0.0025978,0.003,0.0044022,0.0039999 C39.098999,2.8933001,46.8930969,7.6882,49.6044006,20.9979992H33z M20.342802,4.3576002 C17.8907013,7.3262,14.7355013,12.5907001,13.300602,20.9979992H4.0988016 C7.0611014,13.5124998,12.9440012,7.4896002,20.342802,4.3576002z M3.3817017,22.9979992h9.6154003 c-0.2987003,2.3043003-0.4702997,4.8222008-0.4702997,7.5723c0,3.8788013,0.3325996,7.3393993,0.8814993,10.4297009H3.3811016 c-0.8959-2.8426018-1.3810999-5.8653984-1.3810999-9C2.0000017,28.8647003,2.4854016,25.8411007,3.3817017,22.9979992z M4.0981016,43h9.7075005c1.9875994,9.0527992,5.8644991,14.5458984,8.4851999,17.3785019 C13.9835014,57.5281982,7.3152018,51.1310997,4.0981016,43z M43.2122002,59.8180008 C45.8057976,56.8488007,49.3305969,51.4894981,51.1946983,43h8.7070999 C56.8810997,50.6347008,50.8185005,56.7408981,43.2122002,59.8180008z M60.6187973,41h-9.0268974 c0.5490036-3.0903015,0.8816986-6.5508995,0.8816986-10.4297009c0-2.7498989-0.1921997-5.2679996-0.5270996-7.5723h8.6716995 C61.5144997,25.8411007,62,28.8647003,62,32C62,35.1346016,61.514698,38.1573982,60.6187973,41z"></path> </g></svg>